# xmcd CD database file
#
# Track frame offsets:
#	150
#	15060
#	36100
#	69173
#	87298
#	105448
#	127435
#	150034
#	168001
#	174254
#	199548
#	220489
#
# Disc length: 3377 seconds
#
# Revision: 2
# Processed by: cddbd v1.4PL0 Copyright (c) Steve Scherf et al.
# Submitted via: CDex 1.50beta10
#
DISCID=850d2f0c
DTITLE=Real de Catorce - Voy a Morir
DYEAR=2002
DGENRE=Blues
TTITLE0=Crecimiento Cero
TTITLE1=Busco a mi Padre
TTITLE2=El Virrey
TTITLE3=Vacía
TTITLE4=Esa Luz
TTITLE5=Voy a Morir
TTITLE6=El Boxeador
TTITLE7=Veneno
TTITLE8=Columnas de Hiel
TTITLE9=Dramas para Piano y Violín
TTITLE10=El suicidio del Cisne
TTITLE11=Mi Piel
EXTD=YEAR: 2002
EXTT0=
EXTT1=
EXTT2=
EXTT3=
EXTT4=
EXTT5=
EXTT6=
EXTT7=
EXTT8=
EXTT9=
EXTT10=
EXTT11=
PLAYORDER=
